
<svg version="1.0" xmlns="http://www.w3.org/2000/svg"
 width="512.000000pt" height="512.000000pt" viewBox="0 0 512.000000 512.000000"
 preserveAspectRatio="xMidYMid meet">

<g transform="translate(0.000000,512.000000) scale(0.100000,-0.100000)"
fill="#24CCA7" stroke="none">
<path d="M2300 5113 c-8 -4 -184 -127 -391 -274 -328 -235 -378 -273 -394
-308 -57 -127 76 -257 198 -195 18 9 124 83 237 163 113 81 210 150 216 154
24 14 -37 -242 -93 -393 -73 -198 -196 -414 -330 -580 -79 -97 -258 -271 -353
-342 -342 -257 -721 -394 -1145 -414 -154 -8 -194 -23 -225 -84 -39 -77 -13
-163 63 -201 38 -20 52 -21 167 -16 603 29 1138 265 1560 687 262 261 453 570
569 918 38 115 90 326 92 373 2 71 5 69 200 -94 102 -85 200 -162 217 -171 93
-48 212 29 212 136 0 18 -10 50 -23 70 -23 39 -633 553 -675 569 -26 10 -79
11 -102 2z"/>
<path d="M4298 3879 c-23 -12 -46 -35 -58 -59 -20 -39 -20 -56 -20 -1870 0
-1815 0 -1831 20 -1870 13 -26 34 -47 60 -60 37 -19 58 -20 370 -20 312 0 333
1 370 20 26 13 47 34 60 60 20 39 20 55 20 1870 0 1815 0 1831 -20 1870 -13
26 -34 47 -60 60 -37 19 -58 20 -372 20 -312 -1 -335 -2 -370 -21z m522 -1929
l0 -1650 -150 0 -150 0 0 1650 0 1650 150 0 150 0 0 -1650z"/>
<path d="M2905 3086 c-45 -19 -83 -70 -90 -119 -3 -23 -5 -677 -3 -1454 3
-1408 3 -1412 24 -1439 11 -15 33 -37 48 -48 26 -20 42 -21 369 -24 382 -3
388 -2 434 67 l23 34 0 1447 0 1447 -23 34 c-45 68 -54 69 -422 69 -252 -1
-337 -4 -360 -14z m505 -1536 l0 -1250 -150 0 -150 0 0 1250 0 1250 150 0 150
0 0 -1250z"/>
<path d="M1490 2283 c-19 -10 -45 -33 -57 -52 l-23 -34 0 -1047 0 -1047 23
-34 c46 -69 52 -70 434 -67 327 3 343 4 369 24 15 11 37 33 48 48 21 27 21 33
21 1076 0 1043 0 1049 -21 1076 -11 15 -33 37 -48 48 -26 20 -42 21 -369 24
-311 2 -345 1 -377 -15z m520 -1133 l0 -850 -150 0 -150 0 0 850 0 850 150 0
150 0 0 -850z"/>
<path d="M378 1879 c-49 -25 -78 -81 -78 -151 l0 -53 -52 -24 c-65 -30 -166
-129 -197 -194 -89 -185 -58 -381 84 -522 83 -84 201 -135 311 -135 80 0 154
-72 154 -151 0 -46 -39 -108 -82 -130 -32 -17 -60 -19 -218 -19 -210 0 -244
-10 -280 -80 -25 -50 -25 -90 0 -140 31 -60 78 -80 190 -80 l90 0 0 -40 c0
-59 33 -116 80 -140 110 -56 220 20 220 152 l0 53 65 34 c107 55 188 159 221
284 63 237 -99 494 -344 546 -29 6 -69 11 -89 11 -77 0 -153 74 -153 150 0 48
33 103 78 128 37 21 52 22 221 22 211 0 245 10 281 80 25 50 25 90 0 140 -31
60 -78 80 -190 80 l-90 0 0 40 c0 120 -118 194 -222 139z"/>
</g>
</svg>
